<svg xmlns="http://www.w3.org/2000/svg" xmlns:xlink="http://www.w3.org/1999/xlink" width="30" height="30" viewBox="0 0 30 30">
  <defs>
    <clipPath id="clip-path">
      <rect id="Retângulo_5108" data-name="Retângulo 5108" width="30" height="30" transform="translate(6.205 1)" fill="#fff"/>
    </clipPath>
  </defs>
  <g id="Grupo_12297" data-name="Grupo 12297" transform="translate(-6.205 -1)" clip-path="url(#clip-path)">
    <g id="Grupo_12296" data-name="Grupo 12296" clip-path="url(#clip-path)">
      <g id="Grupo_12295" data-name="Grupo 12295" clip-path="url(#clip-path)">
        <path id="Caminho_19038" data-name="Caminho 19038" d="M19.584,30.926A15.138,15.138,0,0,1,7.25,21.709a11.946,11.946,0,0,1-1.044-5.758,10.893,10.893,0,0,1,.34-3.595A15.1,15.1,0,0,1,33.729,7.707a14.331,14.331,0,0,1,2.461,9,14.91,14.91,0,0,1-8.26,12.723A16.18,16.18,0,0,1,19.584,30.926Zm5-1.639a12.5,12.5,0,0,0,2.122-.76l.965-.476V25.618c0-2.4,0-2.443-.356-3.155a4.813,4.813,0,0,0-2.129-2.074c-.568-.261-.788-.277-4.009-.277s-3.441.015-4.009.277a4.813,4.813,0,0,0-2.129,2.074c-.351.712-.356.756-.356,3.155v2.433l.772.414A10.658,10.658,0,0,0,21.307,29.6,13.085,13.085,0,0,0,24.586,29.287ZM13.4,22.993a5.569,5.569,0,0,1,3.64-3.961c.717-.241,1.093-.265,4.141-.265s3.423.024,4.141.265a5.4,5.4,0,0,1,2.367,1.552c1.073,1.159,1.454,2.515,1.462,5.2l0,1.321.418-.293a16.385,16.385,0,0,0,2.9-3.094,13.574,13.574,0,0,0-.342-15.915A13.719,13.719,0,0,0,24.694,2.8a9.931,9.931,0,0,0-3.516-.35,9.932,9.932,0,0,0-3.509.348A13.645,13.645,0,0,0,8.014,19.774a13.808,13.808,0,0,0,4.28,6.624l.847.7.079-1.829C13.263,24.264,13.343,23.24,13.4,22.993Zm6.689-5.912A5.917,5.917,0,0,1,16.049,14,5.645,5.645,0,0,1,17.141,7.45a5.7,5.7,0,1,1,5.23,9.593A4.638,4.638,0,0,1,20.087,17.081ZM23,15.409a4.486,4.486,0,0,0,2.141-2.128,3.4,3.4,0,0,0,.341-1.812,3.4,3.4,0,0,0-.341-1.811A4.548,4.548,0,0,0,23,7.519a4.714,4.714,0,0,0-3.639,0,4.367,4.367,0,0,0,.516,8.111A4.924,4.924,0,0,0,23,15.409Z" fill="#fff"/>
      </g>
    </g>
  </g>
</svg>
