<svg xmlns="http://www.w3.org/2000/svg" xmlns:xlink="http://www.w3.org/1999/xlink" width="225" height="225" viewBox="0 0 225 225">
  <defs>
    <clipPath id="clip-path">
      <rect id="Retângulo_5139" data-name="Retângulo 5139" width="200" height="74" transform="translate(0.175)" fill="#fff"/>
    </clipPath>
  </defs>
  <g id="Grupo_12476" data-name="Grupo 12476" transform="translate(2243 -1167)">
    <rect id="Retângulo_5151" data-name="Retângulo 5151" width="225" height="225" transform="translate(-2243 1167)" fill="#fff"/>
    <g id="Grupo_de_máscara_7" data-name="Grupo de máscara 7" transform="translate(-2230.175 1243)" clip-path="url(#clip-path)">
      <g id="nespresso-4" transform="translate(7.332 17.982)">
        <path id="Caminho_19415" data-name="Caminho 19415" d="M21.41,57.978l8.438,10.753C34.129,74.1,43.621,76.6,50.476,73.9l.06.091C42.776,78.14,32.4,76.033,25.87,70.74c-4.6-3.581-7.23-8.66-11.111-12.78v8.524a2.042,2.042,0,0,0,.468,1.254l-3.39-.006a2.079,2.079,0,0,0,.459-1.249V46.335c3.2,3.851,5.971,7.567,9.114,11.643Zm156.552,7.484A2.535,2.535,0,1,1,180.5,68a2.533,2.533,0,0,1-2.533-2.536Zm2.532,2.28a2.28,2.28,0,1,0-2.28-2.28,2.28,2.28,0,0,0,2.28,2.28Z" transform="translate(2.334 -38.637)" fill-rule="evenodd"/>
        <path id="Caminho_19416" data-name="Caminho 19416" d="M186.311,67.7h1.372c.627,0,.949.29.949.776a.7.7,0,0,1-.474.726v.008c.171.022.426.153.426.605a1.307,1.307,0,0,0,.156.756h-.54a.808.808,0,0,1-.076-.422c0-.525-.11-.76-.571-.76h-.739v1.182h-.505V67.7Zm.5,1.309h.824c.317,0,.49-.156.49-.46,0-.365-.237-.437-.5-.437h-.815Zm-12.267,2.816c-1.31.011-10.255-.285-10.236-10.463.019-10.152,8.862-10.292,10.236-10.284,1.374-.007,10.218.133,10.236,10.284C184.8,71.536,175.858,71.83,174.548,71.821Zm.037-2.811c.564,0,4.7.188,4.662-8.047-.033-7.633-4.038-7.413-4.695-7.408h.006c-.655,0-4.677-.225-4.711,7.408-.037,8.234,4.1,8.047,4.664,8.047ZM161.747,52.218l0,2.523a19.2,19.2,0,0,0-2.738-1.057c-.867-.191-4.592-1.077-6.37.8a2.016,2.016,0,0,0,.51,3.222c2.114,1.368,5.129,1.992,7.6,4.013,1.623,1.286,2.142,2.79,1.729,5.09-.42,2.347-2.985,4.238-5.278,4.716a17.624,17.624,0,0,1-10.084-.894l.013-2.49c2.738,1.143,7,2.6,9.649.286a2.336,2.336,0,0,0,.783-2.587c-.6-1.8-5.5-2.872-8.505-5.113a4.769,4.769,0,0,1-1.662-6.679c2.8-4.2,9.909-3.037,14.353-1.827Zm-17.167,0v2.523a19.2,19.2,0,0,0-2.738-1.057c-.867-.191-4.592-1.077-6.372.8a2.016,2.016,0,0,0,.513,3.222c2.114,1.368,5.127,1.992,7.6,4.013,1.625,1.286,2.144,2.79,1.731,5.09-.42,2.347-2.985,4.238-5.28,4.716a17.626,17.626,0,0,1-10.084-.894l.015-2.49c2.738,1.143,7,2.6,9.649.286a2.336,2.336,0,0,0,.78-2.587c-.6-1.8-5.5-2.872-8.5-5.113a4.765,4.765,0,0,1-1.662-6.679c2.8-4.2,9.909-3.037,14.351-1.827Zm-70.306,0,0,2.523a19.1,19.1,0,0,0-2.738-1.057c-.866-.191-4.59-1.077-6.37.8a2.016,2.016,0,0,0,.512,3.222c2.115,1.368,5.129,1.992,7.6,4.013,1.625,1.286,2.143,2.79,1.729,5.09-.42,2.347-2.985,4.238-5.278,4.716a17.624,17.624,0,0,1-10.084-.894l.014-2.49c2.738,1.143,7,2.6,9.649.286a2.34,2.34,0,0,0,.784-2.587c-.6-1.8-5.506-2.872-8.505-5.113a4.766,4.766,0,0,1-1.662-6.679c2.8-4.2,9.908-3.037,14.351-1.827ZM30.381,61.133c3.143,4.077,5.91,7.791,9.114,11.641V52.627a2.078,2.078,0,0,1,.458-1.249l-3.381,0a2.035,2.035,0,0,1,.462,1.252v8.525c-2.885-3.063-5.077-6.655-7.9-9.768-.355-.435-2.8-3.054-3.541-3.679a19.2,19.2,0,0,0-21-3.689l.076.135a15.087,15.087,0,0,1,10.156.631A13.826,13.826,0,0,1,21.2,49.351c.507.676,9.176,11.782,9.176,11.782ZM48.954,69.45c2.706.27,6.022-.151,8.669-.212l0,2.254H43.289a1.937,1.937,0,0,0,.452-1.253V52.629a1.933,1.933,0,0,0-.452-1.253H57.627l0,2.253c-2.645-.061-5.961-.481-8.669-.211l-.008,6.643a38.454,38.454,0,0,0,6.927-.113v2.394a51.138,51.138,0,0,0-6.923-.113v.765Zm70.394,0c2.706.27,6.021-.151,8.669-.212l0,2.254H113.683a1.933,1.933,0,0,0,.451-1.253V52.629a1.929,1.929,0,0,0-.451-1.253h14.338l0,2.253c-2.647-.061-5.961-.481-8.669-.211l-.008,6.643a38.432,38.432,0,0,0,6.925-.113v2.394a51.107,51.107,0,0,0-6.921-.113v.765Zm-19.48-6.271,0,7.054a1.977,1.977,0,0,0,.454,1.26l-6.134,0a1.939,1.939,0,0,0,.451-1.253V52.629a1.933,1.933,0,0,0-.452-1.253H104.64c2.835.115,5.838,1.684,5.935,5.1a5.275,5.275,0,0,1-3.061,5.279c-.363.165-.331.119-.451.21,1.314,3.067,2.509,5.308,4.1,8.275a3.467,3.467,0,0,0,.966,1.253H105.8a1.194,1.194,0,0,0-.013-1.253s-2.248-5.3-3.3-7.057Zm-.03-9.264v6.775c1.727.007,3.823.227,5.027-1.157a4.034,4.034,0,0,0,.165-4.345c-1.2-2.03-5.191-1.272-5.191-1.272ZM82.682,70.233a1.972,1.972,0,0,0,.452,1.26l-6.135,0a1.941,1.941,0,0,0,.454-1.253V52.629A1.931,1.931,0,0,0,77,51.376H87.132a5.389,5.389,0,0,1,5.34,3.707c.632,2.165.541,4.964-.994,6.707-2.045,2.738-8.816,2.332-8.816,2.332Zm-.025-16.3-.014,7.546c1.745.119,3.822.313,5.026-1.071a5.666,5.666,0,0,0,.166-5.211C86.632,53.165,82.657,53.932,82.657,53.932Z" transform="translate(-4.588 -42.397)" fill-rule="evenodd"/>
      </g>
    </g>
  </g>
</svg>
