<svg xmlns="http://www.w3.org/2000/svg" xmlns:xlink="http://www.w3.org/1999/xlink" width="225" height="225" viewBox="0 0 225 225">
  <defs>
    <clipPath id="clip-path">
      <rect id="Ret창ngulo_5140" data-name="Ret창ngulo 5140" width="186.175" height="20.539" fill="none"/>
    </clipPath>
  </defs>
  <g id="Grupo_12478" data-name="Grupo 12478" transform="translate(1726 -1168)">
    <rect id="Ret창ngulo_5153" data-name="Ret창ngulo 5153" width="225" height="225" transform="translate(-1726 1168)" fill="#fff"/>
    <g id="Grupo_12424" data-name="Grupo 12424" transform="translate(-1707 1270)">
      <g id="Grupo_12423" data-name="Grupo 12423" transform="translate(0 0)" clip-path="url(#clip-path)">
        <path id="Caminho_19417" data-name="Caminho 19417" d="M317.675,13.8c.494-.118.5-.526.62-.816.784-1.89,1.54-3.791,2.307-5.689q1.021-2.53,2.045-5.059c.057-.14.121-.278.171-.421a2.489,2.489,0,0,1,2.41-1.757c1.249-.053,2.5-.028,3.754,0a2.919,2.919,0,0,1,.99.232,1.734,1.734,0,0,1,1.182,1.532c.02.226.018.455.022.682q.142,8.135.282,16.268c.008.491,0,.983,0,1.5a4.614,4.614,0,0,1-2.356.234,7.757,7.757,0,0,1-2.245-.1,3.262,3.262,0,0,1-.121-1.287q-.026-6.656-.043-13.313a10.958,10.958,0,0,0-.049-1.135c-.012-.117-.142-.221-.23-.349-.452.279-.508.72-.659,1.092q-1.722,4.209-3.424,8.425c-.371.913-.764,1.817-1.11,2.739a2.009,2.009,0,0,1-1.648,1.382,10.764,10.764,0,0,1-3.616,0,2.289,2.289,0,0,1-1.89-1.579c-1.294-3.278-2.633-6.538-3.957-9.8-.256-.632-.512-1.265-.786-1.889-.07-.16-.159-.357-.49-.275a1.257,1.257,0,0,0-.118.351c-.023.378-.021.758-.022,1.137q-.015,6.543-.027,13.086c0,.415,0,.831,0,1.293a2.45,2.45,0,0,1-.649.212c-1.137.02-2.276.015-3.413.005a3.468,3.468,0,0,1-.591-.116,6.7,6.7,0,0,1-.085-.8q.077-4.949.168-9.9.061-3.47.123-6.94c0-.189,0-.379.008-.569A1.988,1.988,0,0,1,306.338.019c.567-.031,1.137-.013,1.706-.014.683,0,1.366.021,2.048,0a2.451,2.451,0,0,1,2.3,1.384,6.969,6.969,0,0,1,.376.827q2.218,5.295,4.435,10.591c.143.34.315.669.47.993" transform="translate(-168.743 0)" fill="#161615"/>
        <path id="Caminho_19418" data-name="Caminho 19418" d="M.072.046H1.113c4.551,0,9.1-.008,13.652.01a9.6,9.6,0,0,1,2.027.22,4.482,4.482,0,0,1,3.035,2.209,5.411,5.411,0,0,1,.36,4.817,4.317,4.317,0,0,1-1.513,1.95c-.271.2-.56.375-.93.62.234.155.4.278.577.379.3.169.612.3.9.488a4.745,4.745,0,0,1,2.14,3.091,6.03,6.03,0,0,1-.494,3.985,4.706,4.706,0,0,1-3.876,2.616,11.837,11.837,0,0,1-1.589.087q-4.494.012-8.988,0a7.593,7.593,0,0,1-2.69-.358,5.231,5.231,0,0,1-3.514-3.99,8.8,8.8,0,0,1-.2-1.8C-.005,9.971,0,5.572,0,1.173,0,.839.043.506.072.046M4.743,11.69a12.457,12.457,0,0,0,.143,3.5,2.568,2.568,0,0,0,2.18,2.035,4.687,4.687,0,0,0,.79.063c1.854,0,3.708.014,5.561-.006a5.288,5.288,0,0,0,1.341-.188,2.343,2.343,0,0,0,1.694-1.673,2.829,2.829,0,0,0-2.633-3.834c-.113-.008-.227-.006-.34-.006-2.573,0-5.145,0-7.718,0-.292,0-.585.058-1.018.1m.1-3.5c.3.031.562.078.822.079q3.754.008,7.507,0a5.844,5.844,0,0,0,.794-.044A2.05,2.05,0,0,0,15.573,7.1,2.51,2.51,0,0,0,13.4,3.355c-2.654.006-5.308,0-7.962.009a2.943,2.943,0,0,0-.605.123,20.767,20.767,0,0,0,0,4.707" transform="translate(0 -0.024)" fill="#161615"/>
        <path id="Caminho_19419" data-name="Caminho 19419" d="M58.886,12.19c-.078,1.47-.028,2.832-.04,4.192-.011,1.318.012,2.637-.015,3.886a1.643,1.643,0,0,1-1.2.246,18.813,18.813,0,0,1-3.4-.114,3.97,3.97,0,0,1-.115-1.382q0-7.337,0-14.673c0-1.061-.005-2.123,0-3.185,0-.332.046-.664.076-1.057.315-.023.57-.057.825-.057,4.513,0,9.024-.016,13.535.012a8.358,8.358,0,0,1,2.237.319,5.07,5.07,0,0,1,3.568,3.513,6.875,6.875,0,0,1,.121,3.816,5.319,5.319,0,0,1-2.92,3.585,6.837,6.837,0,0,1-2.607.73c-.325.023-.68-.051-.955.189-.077.387.211.572.387.8q2.454,3.134,4.923,6.257c.253.322.494.653.709.937-.117.325-.326.308-.5.31-1.4.008-2.806-.013-4.208.019a1.431,1.431,0,0,1-1.331-.671c-1.3-1.82-2.64-3.61-3.965-5.411-.449-.611-.912-1.212-1.345-1.833a1.141,1.141,0,0,0-1.053-.544,15.145,15.145,0,0,0-2.723.121m.076-3.54c.35.026.646.068.943.068q3.473.008,6.946,0a6.97,6.97,0,0,0,.795-.034A2.433,2.433,0,0,0,69.8,6.778c.321-1.506-.343-3.424-2.592-3.424-2.542,0-5.085,0-7.628.007a3.059,3.059,0,0,0-.615.121,28.67,28.67,0,0,0,0,5.167" transform="translate(-30.041 -0.023)" fill="#161615"/>
        <path id="Caminho_19420" data-name="Caminho 19420" d="M127.2,20.375a25.653,25.653,0,0,1-5.291-.01l-1.658-3.719a15.936,15.936,0,0,0-2.848-.094c-.948-.021-1.9,0-2.845,0-.91,0-1.82-.005-2.73,0-.943.007-1.889-.037-2.889.045l-1.714,3.883c-1.677.056-3.3.02-4.889.025-.194-.463.044-.743.181-1.036q1.949-4.171,3.91-8.337Q108.561,6.6,110.7,2.08c.081-.171.169-.34.239-.516A2.363,2.363,0,0,1,113.252.035c.909-.034,1.82-.02,2.73-.007a2.56,2.56,0,0,1,2.49,1.629c1.906,4.129,3.862,8.234,5.8,12.348q1.235,2.623,2.47,5.246c.157.336.283.687.462,1.124M114.628,3.823c-.183.329-.245.425-.291.527q-1.881,4.2-3.754,8.4a.861.861,0,0,0-.005.325,46.947,46.947,0,0,0,7.359.137,6.66,6.66,0,0,0,.708-.1,4.711,4.711,0,0,0-.165-.6c-1.23-2.8-2.446-5.613-3.852-8.686" transform="translate(-56.778 -0.008)" fill="#161615"/>
        <path id="Caminho_19421" data-name="Caminho 19421" d="M177.806.067a17.26,17.26,0,0,1,0,3.2c-.426.021-.8.055-1.164.055q-4.781.007-9.562,0a5.01,5.01,0,0,0-1.683.207,1.791,1.791,0,0,0-1.332,1.54A1.9,1.9,0,0,0,165,7.006a5.35,5.35,0,0,0,2.029.7c1.233.2,2.477.338,3.715.5a28.788,28.788,0,0,1,4.681.887,7.628,7.628,0,0,1,2.053.954,4.865,4.865,0,0,1,2.22,3.9,6.3,6.3,0,0,1-1.324,4.474,5.21,5.21,0,0,1-3.586,1.977,15.2,15.2,0,0,1-1.817.1q-5.293.014-10.587,0c-.376,0-.751-.03-1.148-.048a21.932,21.932,0,0,1-1.5-3.156,5.477,5.477,0,0,1,.812-.147c.8-.018,1.593-.008,2.39-.008q4.155,0,8.31,0a7.794,7.794,0,0,0,1.362-.062,4.676,4.676,0,0,0,1.279-.425,2.039,2.039,0,0,0,.241-3.295,3.291,3.291,0,0,0-1.546-.676c-1.2-.184-2.4-.314-3.6-.48-1.574-.219-3.153-.419-4.718-.7a6.659,6.659,0,0,1-1.7-.625,5.717,5.717,0,0,1-2.806-7.059A5.49,5.49,0,0,1,163.623.285a6.351,6.351,0,0,1,1.792-.261C169.285,0,173.155.01,177.026.012c.224,0,.447.031.78.055" transform="translate(-88.516 -0.005)" fill="#161615"/>
        <path id="Caminho_19422" data-name="Caminho 19422" d="M378.239,12.424c-.028.515-.064.884-.065,1.254-.006,1.858,0,3.717-.007,5.575a1.832,1.832,0,0,1-.15,1.1,14.969,14.969,0,0,1-4.443.012,4.311,4.311,0,0,1-.138-.609c-.027-.3-.016-.606-.016-.91q0-8.59,0-17.179c0-.488.032-.975.05-1.5a4.862,4.862,0,0,1,.718-.118c4.4-.006,8.8-.02,13.2.012A7.139,7.139,0,0,1,389.5.415a5.479,5.479,0,0,1,3.94,4.939c.463,4.026-2.224,6.355-5.3,6.871a16.378,16.378,0,0,1-2.489.191c-2.01.027-4.02.009-6.03.009Zm.088-3.443a8.05,8.05,0,0,0,.831.092c2.117.007,4.235.012,6.351,0a4.745,4.745,0,0,0,1.23-.173,2.54,2.54,0,0,0,1.856-1.813,2.782,2.782,0,0,0-2.654-3.712c-2.381-.052-4.763-.013-7.145,0a1.929,1.929,0,0,0-.5.135,33.924,33.924,0,0,0,.029,5.479" transform="translate(-207.321 -0.023)" fill="#161615"/>
        <path id="Caminho_19423" data-name="Caminho 19423" d="M254.05.134c.951-.147,18.4-.157,19.527-.007a9.7,9.7,0,0,1,.015,3.163c-.456.017-.864.046-1.272.046q-6.089.005-12.178,0h-1.3a4.193,4.193,0,0,0-.174.808q-.016,4.382,0,8.764a7.717,7.717,0,0,0,.088.79,3.784,3.784,0,0,0,3.319,3.387,12.51,12.51,0,0,0,2.034.177c2.769.019,5.539.007,8.308.01.412,0,.825.022,1.293.035a12.54,12.54,0,0,1,.071,3.024,5.189,5.189,0,0,1-.645.174,4.968,4.968,0,0,1-.681.016q-5.35,0-10.7,0a10.2,10.2,0,0,1-3.039-.345,6.429,6.429,0,0,1-4.211-3.547,6.676,6.676,0,0,1-.564-2.651c-.017-.872-.007-1.745-.007-2.618q0-5.007,0-10.016a2.664,2.664,0,0,1,.11-1.208" transform="translate(-140.979 -0.011)" fill="#161615"/>
        <path id="Caminho_19424" data-name="Caminho 19424" d="M213.057,3.367c-2.431-.078-4.734.016-7.01-.056a7.049,7.049,0,0,1-.015-3.182C206.876,0,223.3-.038,224.887.081a6.9,6.9,0,0,1,.1,3.167,6.449,6.449,0,0,1-.74.083c-1.706.008-3.413,0-5.119.007-.373,0-.745.027-1.074.04a1.789,1.789,0,0,0-.23,1.273c-.01,2.844-.005,5.688-.005,8.532,0,2.01,0,4.02,0,6.03,0,.371-.036.741-.058,1.16a17.305,17.305,0,0,1-3.32.124,2.182,2.182,0,0,1-1.277-.189c-.089-1.12-.03-2.252-.041-3.38-.011-1.1,0-2.2,0-3.3V10.214c0-1.1.006-2.2,0-3.3-.009-1.131.042-2.264-.054-3.549" transform="translate(-114.292 -0.006)" fill="#161615"/>
        <path id="Caminho_19425" data-name="Caminho 19425" d="M279.916,21.913c-.5.027-.83.06-1.165.06q-3.3.007-6.591,0a2.727,2.727,0,0,1-2.992-2.077,12.028,12.028,0,0,1-.336-1.366,2.809,2.809,0,0,1,.588-.149q4.943-.01,9.885,0a3.22,3.22,0,0,1,.467.071,3.105,3.105,0,0,1,.194,1.662c.013.561-.029,1.124-.052,1.8" transform="translate(-149.256 -10.203)" fill="#161615"/>
        <path id="Caminho_19426" data-name="Caminho 19426" d="M10.6,26.092c.433-.046.725-.1,1.018-.1q3.859-.01,7.718,0c.113,0,.227,0,.341.006a2.829,2.829,0,0,1,2.632,3.834A2.342,2.342,0,0,1,20.614,31.5a5.271,5.271,0,0,1-1.341.188c-1.853.02-3.708.011-5.561.005a4.646,4.646,0,0,1-.79-.063,2.569,2.569,0,0,1-2.18-2.035,12.458,12.458,0,0,1-.142-3.5" transform="translate(-5.857 -14.426)" fill="#fff"/>
        <path id="Caminho_19427" data-name="Caminho 19427" d="M10.713,12.327a20.767,20.767,0,0,1,0-4.707,2.943,2.943,0,0,1,.605-.123c2.654-.009,5.308,0,7.962-.009a2.51,2.51,0,0,1,2.168,3.749,2.05,2.05,0,0,1-1.61,1.126,5.844,5.844,0,0,1-.794.044q-3.754,0-7.507,0c-.259,0-.518-.048-.822-.079" transform="translate(-5.872 -4.157)" fill="#fff"/>
        <path id="Caminho_19428" data-name="Caminho 19428" d="M64.875,12.787a28.669,28.669,0,0,1,0-5.167A3.059,3.059,0,0,1,65.49,7.5c2.542-.009,5.085-.007,7.628-.007,2.249,0,2.913,1.918,2.592,3.424a2.433,2.433,0,0,1-2.152,1.907,6.97,6.97,0,0,1-.795.034q-3.473,0-6.946,0c-.3,0-.593-.042-.943-.068" transform="translate(-35.954 -4.159)" fill="#fff"/>
        <path id="Caminho_19429" data-name="Caminho 19429" d="M124.984,8.578c1.406,3.074,2.622,5.883,3.852,8.686a4.713,4.713,0,0,1,.165.6,6.66,6.66,0,0,1-.708.1,46.946,46.946,0,0,1-7.359-.137.861.861,0,0,1,.005-.325q1.869-4.2,3.754-8.4c.046-.1.108-.2.291-.527" transform="translate(-67.134 -4.762)" fill="#fff"/>
        <path id="Caminho_19430" data-name="Caminho 19430" d="M384.295,13.1a33.931,33.931,0,0,1-.029-5.479,1.93,1.93,0,0,1,.5-.135c2.381-.01,4.764-.049,7.145,0a2.782,2.782,0,0,1,2.654,3.712,2.54,2.54,0,0,1-1.856,1.813,4.744,4.744,0,0,1-1.23.173c-2.117.017-4.235.011-6.351,0a8.052,8.052,0,0,1-.831-.092" transform="translate(-213.29 -4.145)" fill="#fff"/>
      </g>
    </g>
  </g>
</svg>
