<svg xmlns="http://www.w3.org/2000/svg" xmlns:xlink="http://www.w3.org/1999/xlink" width="225" height="225" viewBox="0 0 225 225">
  <defs>
    <clipPath id="clip-path">
      <rect id="Ret창ngulo_5147" data-name="Ret창ngulo 5147" width="225" height="73" transform="translate(0)" fill="none"/>
    </clipPath>
  </defs>
  <g id="Grupo_12483" data-name="Grupo 12483" transform="translate(204 -1540)">
    <rect id="Ret창ngulo_5159" data-name="Ret창ngulo 5159" width="225" height="225" transform="translate(-204 1540)" fill="#fff"/>
    <g id="Grupo_12438" data-name="Grupo 12438" transform="translate(-204 1616)">
      <g id="Grupo_12437" data-name="Grupo 12437" clip-path="url(#clip-path)">
        <g id="Grupo_12436" data-name="Grupo 12436">
          <g id="Grupo_12435" data-name="Grupo 12435" clip-path="url(#clip-path)">
            <g id="Grupo_12434" data-name="Grupo 12434">
              <g id="Grupo_12433" data-name="Grupo 12433" clip-path="url(#clip-path)">
                <path id="Caminho_19449" data-name="Caminho 19449" d="M225,72.563H0V0H225ZM113.111,15.512q-47.465,0-94.93,0c-5.138,0-8.678,3.367-8.707,8.407-.048,8.161-.023,16.322,0,24.483a7.814,7.814,0,0,0,.378,2.476c1.368,3.971,4.106,5.853,8.4,5.853H196.442c4.031,0,8.063.03,12.095-.008a8.235,8.235,0,0,0,8.23-8.322c0-7.973-.111-15.949.042-23.919a8.629,8.629,0,0,0-9.049-9q-47.324.085-94.649.028" fill="#fff"/>
                <path id="Caminho_19450" data-name="Caminho 19450" d="M137.256,55.085q47.324,0,94.649-.028a8.629,8.629,0,0,1,9.049,9c-.154,7.97-.038,15.946-.042,23.919a8.235,8.235,0,0,1-8.23,8.321c-4.031.038-8.063.008-12.095.008H42.4c-4.291,0-7.03-1.882-8.4-5.853a7.805,7.805,0,0,1-.378-2.476c-.027-8.161-.053-16.322,0-24.483.029-5.04,3.569-8.407,8.707-8.407q47.465,0,94.93,0M114.217,78.956c-1.1-3.257-2.043-6.135-3.049-8.991-1.131-3.212-.209-2.593-3.837-2.718-1.117-.039-1.561.34-1.722,1.449-.5,3.427-1.1,6.839-1.653,10.258-.379,2.34-.746,4.683-1.157,7.27,1.064,0,1.944-.064,2.811.016,1.167.107,1.644-.311,1.8-1.517.416-3.136.984-6.252,1.491-9.376a2.8,2.8,0,0,1,.7,1.208c.963,2.839,1.958,5.667,2.86,8.526.3.962.859,1.16,1.764,1.166a1.512,1.512,0,0,0,1.735-1.2c.882-2.816,1.86-5.6,2.808-8.4.15-.441.337-.87.507-1.3.774,3.25,1.271,6.434,1.828,9.608.076.436.417,1.143.693,1.172a37.274,37.274,0,0,0,3.833.056c-.969-5.968-1.889-11.641-2.811-17.313a4.192,4.192,0,0,0-.163-.826c-.094-.245-.268-.645-.422-.652a16.521,16.521,0,0,0-3.761.036c-.412.077-.725,1.093-.945,1.728-1.086,3.128-2.126,6.273-3.315,9.8m44.691-.444-.354.089c-2.01-2.987-4.155-5.893-5.979-8.99a4.191,4.191,0,0,0-4.5-2.4c-1.21.113-1.606.4-1.59,1.625.06,4.78-.006,9.562.034,14.342.029,3.435-.657,2.985,3.193,3.053.987.017,1.3-.357,1.285-1.321-.044-3.046-.019-6.093-.01-9.14,0-.326.071-.651.143-1.276,2.218,3.3,4.4,6.245,6.235,9.392a4.269,4.269,0,0,0,4.66,2.377c1.106-.11,1.425-.436,1.415-1.509-.045-4.921-.006-9.843-.027-14.765-.013-3.106.374-2.693-2.659-2.721-1.833-.017-1.839,0-1.842,1.856q-.007,4.693,0,9.386m29.332-11.237c0,6.2-.01,12.192.033,18.183,0,.253.447.634.753.723a5.121,5.121,0,0,0,1.4.04c2.226,0,2.226,0,2.226-2.2,0-3.072,0-6.144,0-9.646.52.706.795,1.052,1.04,1.418,2.09,3.111,4.162,6.234,6.277,9.329.294.43.764.977,1.2,1.027a35.273,35.273,0,0,0,3.876.049V84.47q0-7.031,0-14.061c0-3.243,0-3.2-3.191-3.163-1,.013-1.3.384-1.286,1.322.032,2.906.014,5.812,0,8.718,0,.424-.059.848-.12,1.655-2.538-3.779-4.817-7.208-7.15-10.6a2.35,2.35,0,0,0-1.347-1.016,30.009,30.009,0,0,0-3.716-.048m-42.863,9.5a9.948,9.948,0,0,0-9.756-9.953,9.9,9.9,0,1,0,9.756,9.953M76.319,78.4c.358-.193.554-.3.755-.4a5.648,5.648,0,0,0,3.236-6.476,5.56,5.56,0,0,0-5.706-4.25c-1.778-.016-3.56.062-5.334-.026-1.209-.06-1.629.3-1.61,1.566.069,4.774-.008,9.551.039,14.326.035,3.5-.712,3.013,3.121,3.1,1.064.024,1.392-.394,1.355-1.4-.058-1.556-.015-3.115-.015-4.673a48.685,48.685,0,0,1,3.933,5.054c.262.365.63.887.98.913,1.417.1,2.846.043,4.642.043l-5.4-7.768m25.347,7.8c-2.491-6.324-4.829-12.292-7.219-18.238a1.546,1.546,0,0,0-1.064-.665c-.637-.111-1.314.026-1.962-.047-.979-.111-1.408.361-1.74,1.221-2.13,5.505-4.306,10.993-6.458,16.49A12.407,12.407,0,0,0,82.9,86.2c1.311,0,2.471.054,3.62-.035a1.2,1.2,0,0,0,.861-.738c.467-2.947,2.415-3.376,4.89-3a5.582,5.582,0,0,0,.843,0c2.641,0,2.614.008,3.671,2.473.213.5.669,1.171,1.094,1.237a26.574,26.574,0,0,0,3.789.059M225.4,86.189a3.82,3.82,0,0,0-.06-.6c-2.284-5.845-4.558-11.694-6.89-17.519a1.774,1.774,0,0,0-1.137-.769,14.757,14.757,0,0,0-1.677-.047c-1.1-.139-1.66.287-2.068,1.358-2.033,5.339-4.159,10.643-6.246,15.962-.177.453-.3.926-.534,1.645a26.163,26.163,0,0,1,2.739.018,1.716,1.716,0,0,0,2.128-1.479c.075-.316.271-.6.343-.92a1.617,1.617,0,0,1,2-1.426c1.066.109,2.153,0,3.23.023,2.99.059,2.287-.441,3.468,2.366.216.513.617,1.261,1.021,1.322a25,25,0,0,0,3.68.063M56.658,71.027c0,4.274-.032,8.256.01,12.236.035,3.313-.691,2.91,3.126,2.97.978.015,1.3-.341,1.286-1.316-.042-4.079-.019-8.159-.013-12.239,0-.5.045-1,.076-1.659a27.872,27.872,0,0,0,3.327-.046c.371-.046.806-.564.976-.967s0-.927.047-1.39c.117-1.055-.328-1.385-1.367-1.368-3.186.053-6.374.019-9.561.019-2.381,0-2.38,0-2.33,2.353a2.607,2.607,0,0,1,0,.281c-.077.872.371,1.158,1.183,1.133,1.017-.032,2.035-.008,3.237-.008m117.726,0h2.126c2.341,0,2.281,0,2.312-2.273.017-1.176-.389-1.531-1.543-1.506-3.183.066-6.368.022-9.552.022-2.1,0-2.021,0-2.109,2.033-.058,1.339.357,1.932,1.733,1.739.413-.058.848.039,1.262-.017,1.152-.158,1.415.374,1.4,1.443-.055,3.747-.039,7.5-.016,11.243.017,2.762-.423,2.5,2.578,2.51,1.806.008,1.809,0,1.81-1.875,0-4.351,0-8.7,0-13.319m11.034,5.71c0-2.25.019-4.5,0-6.751-.033-3.134.44-2.607-2.79-2.744-1.361-.058-1.646.469-1.631,1.7.056,4.781-.005,9.564.032,14.345.026,3.292-.613,2.864,3.013,2.951,1.147.028,1.424-.428,1.4-1.489-.06-2.671-.02-5.344-.019-8.016" transform="translate(-24.144 -39.572)" fill="#161615"/>
                <path id="Caminho_19451" data-name="Caminho 19451" d="M291.081,110.1c1.189-3.531,2.229-6.676,3.315-9.8.221-.635.533-1.651.945-1.728a16.523,16.523,0,0,1,3.762-.036c.154.007.328.407.422.652a4.172,4.172,0,0,1,.163.826c.922,5.673,1.842,11.346,2.811,17.313a37.266,37.266,0,0,1-3.833-.056c-.276-.029-.617-.736-.693-1.172-.557-3.174-1.054-6.358-1.828-9.608-.17.435-.357.863-.507,1.3-.948,2.8-1.927,5.581-2.808,8.4a1.512,1.512,0,0,1-1.735,1.2c-.9-.007-1.46-.2-1.764-1.166-.9-2.858-1.9-5.687-2.86-8.526a2.8,2.8,0,0,0-.7-1.208c-.507,3.124-1.075,6.24-1.491,9.376-.16,1.206-.637,1.624-1.8,1.517-.867-.08-1.747-.016-2.811-.016.411-2.587.778-4.929,1.157-7.269.554-3.419,1.157-6.831,1.653-10.258.161-1.109.6-1.488,1.722-1.449,3.628.125,2.706-.493,3.837,2.718,1.006,2.856,1.948,5.734,3.049,8.991" transform="translate(-201.008 -70.719)" fill="#fff"/>
                <path id="Caminho_19452" data-name="Caminho 19452" d="M447.4,109.5q0-4.693,0-9.386c0-1.855.008-1.873,1.842-1.856,3.033.028,2.646-.385,2.659,2.721.02,4.921-.019,9.843.027,14.764.01,1.074-.309,1.4-1.415,1.51a4.269,4.269,0,0,1-4.66-2.377c-1.835-3.147-4.017-6.091-6.235-9.392-.073.625-.142.951-.143,1.276-.009,3.047-.034,6.094.01,9.14.014.964-.3,1.338-1.285,1.321-3.85-.068-3.164.383-3.193-3.053-.041-4.78.026-9.562-.034-14.342-.015-1.229.381-1.512,1.59-1.625a4.191,4.191,0,0,1,4.5,2.4c1.824,3.1,3.969,6,5.979,8.99l.354-.089" transform="translate(-312.639 -70.556)" fill="#fff"/>
                <path id="Caminho_19453" data-name="Caminho 19453" d="M583.448,98.4a30.014,30.014,0,0,1,3.716.048,2.35,2.35,0,0,1,1.346,1.016c2.332,3.394,4.612,6.823,7.15,10.6.06-.807.118-1.231.12-1.655.009-2.906.028-5.812,0-8.717-.01-.938.286-1.309,1.286-1.322,3.191-.04,3.191-.08,3.191,3.163q0,7.03,0,14.061v1.729a35.274,35.274,0,0,1-3.876-.049c-.439-.05-.908-.6-1.2-1.027-2.115-3.094-4.187-6.218-6.277-9.329-.246-.365-.52-.711-1.04-1.418v9.646c0,2.2,0,2.2-2.226,2.2a5.12,5.12,0,0,1-1.4-.04c-.306-.09-.751-.47-.753-.723-.042-5.991-.033-11.982-.033-18.183" transform="translate(-419.352 -70.699)" fill="#fff"/>
                <path id="Caminho_19454" data-name="Caminho 19454" d="M381.085,106.854a9.888,9.888,0,0,1-9.841,9.844,9.9,9.9,0,0,1,.085-19.8,9.948,9.948,0,0,1,9.756,9.953m-9.846-5.751a5.649,5.649,0,0,0-5.6,5.668,5.786,5.786,0,0,0,5.64,5.82,5.693,5.693,0,0,0,5.573-5.857,5.567,5.567,0,0,0-5.608-5.631" transform="translate(-259.853 -69.648)" fill="#fff"/>
                <path id="Caminho_19455" data-name="Caminho 19455" d="M163.38,109.534l5.4,7.768c-1.8,0-3.225.061-4.642-.043-.35-.026-.718-.548-.98-.913a48.66,48.66,0,0,0-3.933-5.054c0,1.558-.042,3.117.015,4.672.037,1.011-.291,1.428-1.355,1.4-3.833-.087-3.086.4-3.121-3.1-.047-4.775.03-9.551-.039-14.326-.018-1.265.4-1.626,1.61-1.566,1.774.088,3.556.01,5.334.026a5.56,5.56,0,0,1,5.706,4.25,5.648,5.648,0,0,1-3.236,6.476c-.2.1-.4.212-.755.4m-4.149-2.965c1.524.226,2.862.158,3.546-1.067a3.15,3.15,0,0,0,.011-2.452c-.484-1.113-1.711-.955-2.717-.847a1.177,1.177,0,0,0-.8.8c-.095,1.146-.038,2.3-.038,3.567" transform="translate(-111.206 -70.704)" fill="#fff"/>
                <path id="Caminho_19456" data-name="Caminho 19456" d="M227.669,117.337a26.617,26.617,0,0,1-3.788-.059c-.425-.066-.881-.741-1.094-1.237-1.057-2.465-1.031-2.477-3.671-2.473a5.617,5.617,0,0,1-.843,0c-2.475-.377-4.423.051-4.89,3a1.2,1.2,0,0,1-.861.738c-1.149.089-2.309.035-3.62.035a12.37,12.37,0,0,1,.326-1.237c2.152-5.5,4.328-10.985,6.457-16.49.332-.86.761-1.331,1.74-1.221.648.073,1.325-.064,1.962.047a1.547,1.547,0,0,1,1.064.665c2.39,5.946,4.727,11.913,7.218,18.238m-9.274-12.415-.366-.048-1.935,4.976h4.248l-1.947-4.929" transform="translate(-150.148 -70.705)" fill="#fff"/>
                <path id="Caminho_19457" data-name="Caminho 19457" d="M668,117.3a24.961,24.961,0,0,1-3.68-.063c-.4-.062-.805-.809-1.021-1.322-1.181-2.807-.479-2.307-3.469-2.366-1.077-.021-2.164.085-3.23-.023a1.617,1.617,0,0,0-2,1.426c-.071.316-.268.6-.343.92a1.715,1.715,0,0,1-2.128,1.479,26.173,26.173,0,0,0-2.739-.018c.232-.719.356-1.193.534-1.645,2.086-5.319,4.213-10.623,6.246-15.962.408-1.072.963-1.5,2.068-1.358a14.819,14.819,0,0,1,1.677.047,1.774,1.774,0,0,1,1.137.769c2.332,5.826,4.606,11.674,6.889,17.519a3.847,3.847,0,0,1,.061.6m-7.091-7.419-2.166-5.47-2.147,5.47Z" transform="translate(-466.748 -70.683)" fill="#fff"/>
                <path id="Caminho_19458" data-name="Caminho 19458" d="M104.274,102.183c-1.2,0-2.221-.024-3.238.008-.812.025-1.26-.26-1.183-1.133a2.609,2.609,0,0,0,0-.281c-.051-2.352-.051-2.353,2.329-2.353,3.187,0,6.375.034,9.562-.019,1.04-.017,1.484.313,1.367,1.368-.051.463.121.992-.048,1.39s-.6.921-.976.967a27.872,27.872,0,0,1-3.327.046c-.032.654-.076,1.156-.077,1.659-.006,4.08-.029,8.16.014,12.239.01.975-.309,1.331-1.287,1.316-3.817-.059-3.091.343-3.126-2.97-.041-3.98-.01-7.962-.01-12.236" transform="translate(-71.76 -70.728)" fill="#fff"/>
                <path id="Caminho_19459" data-name="Caminho 19459" d="M511.771,102.17c0,4.618,0,8.968,0,13.319,0,1.871,0,1.883-1.81,1.875-3-.014-2.561.252-2.578-2.51-.023-3.748-.039-7.5.016-11.243.016-1.069-.247-1.6-1.4-1.443-.414.057-.849-.041-1.262.017-1.376.193-1.791-.4-1.733-1.739.088-2.03.013-2.033,2.109-2.033,3.184,0,6.369.044,9.552-.022,1.155-.024,1.56.33,1.543,1.506-.032,2.271.028,2.272-2.312,2.273h-2.126" transform="translate(-361.532 -70.717)" fill="#fff"/>
                <path id="Caminho_19460" data-name="Caminho 19460" d="M562.1,107.858c0,2.672-.041,5.345.019,8.016.024,1.061-.253,1.517-1.4,1.489-3.626-.087-2.987.34-3.013-2.951-.037-4.782.024-9.564-.032-14.345-.015-1.235.27-1.761,1.631-1.7,3.23.138,2.757-.39,2.791,2.744.024,2.25,0,4.5,0,6.751" transform="translate(-400.831 -70.695)" fill="#fff"/>
                <path id="Caminho_19461" data-name="Caminho 19461" d="M381.716,111.842a5.567,5.567,0,0,1,5.608,5.631,5.693,5.693,0,0,1-5.573,5.857,5.786,5.786,0,0,1-5.64-5.82,5.649,5.649,0,0,1,5.6-5.668" transform="translate(-270.33 -80.386)" fill="#161615"/>
                <path id="Caminho_19462" data-name="Caminho 19462" d="M170.716,116.169c0-1.263-.056-2.421.038-3.567a1.177,1.177,0,0,1,.8-.8c1.006-.109,2.233-.267,2.717.847a3.15,3.15,0,0,1-.011,2.452c-.683,1.225-2.022,1.293-3.546,1.067" transform="translate(-122.69 -80.304)" fill="#161615"/>
                <path id="Caminho_19463" data-name="Caminho 19463" d="M236.777,121.541l1.947,4.929h-4.248l1.935-4.976.366.048" transform="translate(-168.53 -87.323)" fill="#161615"/>
                <path id="Caminho_19464" data-name="Caminho 19464" d="M679.33,125.393h-4.313l2.147-5.47,2.166,5.47" transform="translate(-485.168 -86.195)" fill="#161615"/>
              </g>
            </g>
          </g>
        </g>
      </g>
    </g>
  </g>
</svg>
