<svg width="22" height="22" viewBox="0 0 22 22" fill="none" xmlns="http://www.w3.org/2000/svg">
<path d="M17.5 19.247V15C17.5 15 15 13.5 11 13.5C7 13.5 4.5 15 4.5 15V19.247M0.5 11C0.5 5.201 5.201 0.5 11 0.5C16.799 0.5 21.5 5.201 21.5 11C21.5 16.799 16.799 21.5 11 21.5C5.201 21.5 0.5 16.799 0.5 11ZM10.926 11.5C10.926 11.5 7.5 9.68 7.5 7C7.5 5.067 9.069 3.5 11.004 3.5C11.4635 3.49987 11.9185 3.59034 12.3429 3.76623C12.7674 3.94212 13.153 4.19999 13.4778 4.52507C13.8025 4.85016 14.0599 5.23608 14.2353 5.66075C14.4107 6.08543 14.5007 6.54053 14.5 7C14.5 9.68 11.074 11.5 11.074 11.5H10.926Z" stroke="#040114"/>
</svg>
