<svg xmlns="http://www.w3.org/2000/svg" xmlns:xlink="http://www.w3.org/1999/xlink" width="225" height="225" viewBox="0 0 225 225">
  <defs>
    <clipPath id="clip-path">
      <rect id="Retângulo_5144" data-name="Retângulo 5144" width="186" height="47.668" fill="none"/>
    </clipPath>
  </defs>
  <g id="Grupo_12482" data-name="Grupo 12482" transform="translate(525 -1551)">
    <path id="Caminho_19465" data-name="Caminho 19465" d="M0,0H225V225H0Z" transform="translate(-525 1551)" fill="#fff"/>
    <g id="Grupo_12432" data-name="Grupo 12432" transform="translate(-505 1640)">
      <g id="Grupo_12431" data-name="Grupo 12431" clip-path="url(#clip-path)">
        <path id="Caminho_19443" data-name="Caminho 19443" d="M0,24.176A8.771,8.771,0,0,0,.528,21.74,22.417,22.417,0,0,1,19.75,3.631a25.687,25.687,0,0,1,10.176.414c2.517.674,4.282,2.131,4.653,4.842a6.951,6.951,0,0,1-1.4,5.038,1.619,1.619,0,0,1-2.116.683,20.388,20.388,0,0,0-8.489-1.117c-4.124.2-7.6,1.724-9.872,5.348a12.981,12.981,0,0,0-1.866,5.547,20.153,20.153,0,0,0,.393,7.568,10.781,10.781,0,0,0,9.729,8.233,15.938,15.938,0,0,0,7.908-1.074c1.182-.482,1.6-.318,2.155.854a38.41,38.41,0,0,0,3.186,5.384c.844,1.22.707,1.7-.609,2.425a22.3,22.3,0,0,1-7.98,2.28A24.379,24.379,0,0,1,12.19,48.4C5.81,45.556,2.075,40.553.568,33.792A20.015,20.015,0,0,0,0,30.9Z" transform="translate(0 -2.715)" fill="#161615"/>
        <path id="Caminho_19444" data-name="Caminho 19444" d="M212.482,71.816c.1,9.576-6.322,17.41-15.607,18.775-8.294,1.219-16.157-2.382-19.4-9.892-3.305-7.654-2.682-15.041,2.99-21.524A18.558,18.558,0,0,1,201.6,54.687c6.722,2.919,10.091,8.275,10.805,15.441.06.6.058,1.208.079,1.688M194.076,62.9a7.257,7.257,0,0,0-7.545,5.193,12.13,12.13,0,0,0-.044,7.764,7.08,7.08,0,0,0,6.06,5.173c4.925.723,8.579-1.846,9.438-6.67a12.9,12.9,0,0,0-.072-4.871c-.87-4.275-3.511-6.5-7.837-6.589" transform="translate(-143.56 -43.485)" fill="#161615"/>
        <path id="Caminho_19445" data-name="Caminho 19445" d="M799.8,66.637c-.089,3.035.178,6.79-.114,10.535a14.809,14.809,0,0,1-13.023,13.835,22.494,22.494,0,0,1-9.443-.5c-6.445-1.867-10.121-6.7-10.355-13.331-.229-6.5-.071-13.009-.048-19.514a4.24,4.24,0,0,1,3.38-4,9.052,9.052,0,0,1,4.931-.026c1.5.405,1.848.9,1.845,2.454q-.017,8.986-.025,17.972a12.61,12.61,0,0,0,.371,3.146,5.048,5.048,0,0,0,4.324,3.985,10.032,10.032,0,0,0,3.343.008c2.722-.439,4.256-2.246,4.52-5.322.044-.511.041-1.028.042-1.542q0-7.761,0-15.522c0-3.317,1.451-4.957,4.735-5.412a8.311,8.311,0,0,1,4.109.405c1.143.426,1.4.817,1.4,2.038,0,3.358,0,6.717,0,10.791" transform="translate(-627.319 -43.612)" fill="#161615"/>
        <path id="Caminho_19446" data-name="Caminho 19446" d="M426.052,78.1q0,5.311,0,10.622c0,1.29-.341,1.646-1.589,1.651q-3.5.014-6.991,0c-1.213-.005-1.569-.343-1.571-1.577q-.009-9.169.013-18.338a12.227,12.227,0,0,0-.364-3.325,4.822,4.822,0,0,0-4.1-3.726,8.314,8.314,0,0,0-4.985.473c-2.464,1.12-3.181,3.345-3.305,5.823-.075,1.509-.034,3.025-.035,4.538,0,4.691,0,9.382,0,14.072,0,1.746-.333,2.063-2.063,2.064-2.179,0-4.358,0-6.537,0-1.242,0-1.6-.358-1.665-1.611-.008-.151,0-.3,0-.454q0-9.4,0-18.793a16.516,16.516,0,0,1,2.6-9.483,14.79,14.79,0,0,1,10.447-6.381,22.673,22.673,0,0,1,9.188.292,13.592,13.592,0,0,1,10.772,11.911,19.866,19.866,0,0,1,.2,2.893q-.007,4.676,0,9.351" transform="translate(-321.414 -43.621)" fill="#161615"/>
        <path id="Caminho_19447" data-name="Caminho 19447" d="M601.658,89.171a36.315,36.315,0,0,1-11.849-2.164c-.257-.09-.512-.187-.762-.295-1.283-.554-1.481-.9-1.112-2.228.5-1.776,1.024-3.544,1.567-5.306.375-1.217.839-1.461,2.035-1A31.645,31.645,0,0,0,602,80.218a14.63,14.63,0,0,0,3.965-.341c1.5-.372,2.226-1.07,2.247-2.117.027-1.395-.49-2.061-2.091-2.549a42.443,42.443,0,0,0-5.171-.949,38.7,38.7,0,0,1-6.281-1.387c-4.858-1.709-6.916-4.555-7.009-9.705a10.548,10.548,0,0,1,7.811-10.935,28.561,28.561,0,0,1,16.022-.159,11.525,11.525,0,0,1,1.282.455c3.7,1.41,4.258,5.338,2.177,8.237a1.508,1.508,0,0,1-1.878.633,32.3,32.3,0,0,0-11.829-1.367,9.242,9.242,0,0,0-2.586.427A2.038,2.038,0,0,0,597.03,62.5a2.066,2.066,0,0,0,1.62,2.139,27.243,27.243,0,0,0,4.711.924,41.207,41.207,0,0,1,8.981,2.122,8.706,8.706,0,0,1,5.745,8.174c.391,6.577-3.373,11.278-10.151,12.764a24.411,24.411,0,0,1-6.277.554" transform="translate(-480.797 -41.732)" fill="#161615"/>
        <path id="Caminho_19448" data-name="Caminho 19448" d="M977.059,23.737q0,10.715,0,21.429c0,1.276-.275,1.576-1.515,1.581q-3.541.016-7.083,0c-1.2-.005-1.565-.382-1.565-1.589q-.005-20.249,0-40.5c0-2.509,1.694-4.216,4.6-4.573a8.784,8.784,0,0,1,4.379.456,1.653,1.653,0,0,1,1.2,1.764c-.037,7.143-.02,14.286-.02,21.429" transform="translate(-791.08 0.001)" fill="#161615"/>
      </g>
    </g>
  </g>
</svg>
