<svg xmlns="http://www.w3.org/2000/svg" xmlns:xlink="http://www.w3.org/1999/xlink" width="225" height="225" viewBox="0 0 225 225">
  <defs>
    <clipPath id="clip-path">
      <rect id="Retângulo_5137" data-name="Retângulo 5137" width="200" height="74" transform="translate(0.175)" fill="#fff"/>
    </clipPath>
  </defs>
  <g id="Grupo_12477" data-name="Grupo 12477" transform="translate(1976 -1167)">
    <rect id="Retângulo_5152" data-name="Retângulo 5152" width="225" height="225" transform="translate(-1976 1167)" fill="#fff"/>
    <g id="Grupo_de_máscara_5" data-name="Grupo de máscara 5" transform="translate(-1963.175 1243)" clip-path="url(#clip-path)">
      <g id="panasonic-1" transform="translate(10.086 -8.435)">
        <path id="Caminho_19412" data-name="Caminho 19412" d="M44.325,46.864c0-4.416-.53-7.916-9.293-7.916-7.314,0-9.758,2.629-9.706,6.96h6.548a2.693,2.693,0,0,1,2.7-2.295c.777,0,2.4.177,2.4,1.519,0,4.024-12.654.311-12.654,8.87,0,3.851,4,5.414,6.083,5.362,2.755-.067,4.875-.565,6.96-2.508l.8,1.979h6.5C44.352,58.128,44.325,46.864,44.325,46.864ZM33.576,55.137a1.878,1.878,0,0,1-2.063-1.907c.017-1.571,3.269-1.514,5.672-2.68C37.363,53.092,36.155,55.137,33.576,55.137Zm140.481-4.071c-.213,1.448-.954,3.246-2.862,3.246-2.313,0-3.578-2.251-3.578-5.042,0-2.19.822-5.129,3.578-5.129a2.469,2.469,0,0,1,1.907.742,2.779,2.779,0,0,1,.778,1.908h7.066c-.53-5.476-4.8-7.6-9.751-7.6-6.113,0-10.642,3.638-10.642,9.962,0,6.254,4.67,10.1,10.642,10.1,5.122,0,9.257-2.575,9.893-8.192h-7.031ZM152.689,58.85h7.1V39.825h-7.1Zm0-21.935h7.1v-4.86h-7.1ZM119.32,39c-6.254,0-10.557,3.752-10.557,10.183,0,6.325,4.657,10.076,10.593,10.076s10.6-3.653,10.6-10.437C129.954,43.063,125.856,39,119.32,39Zm.036,15.313c-1.873,0-3.322-2.01-3.322-5.508,0-2.084.885-4.663,3.391-4.663,1.909-.106,3.257,2.09,3.257,4.811C122.682,52.45,121.334,54.312,119.356,54.312ZM95.9,44.44c.017-.919,1.015-1.345,2.287-1.345a3.143,3.143,0,0,1,1.749.46,2.326,2.326,0,0,1,.706,1.343h6.678c-.182-4.942-5.029-5.974-9.36-5.974-3.85,0-8.847,1.522-8.855,6.257-.013,7.767,11.869,4.932,11.869,7.9,0,1.308-.979,1.8-2.732,1.8a3.55,3.55,0,0,1-1.928-.83,2.115,2.115,0,0,1-.778-1.7h-6.6c.129,5.185,4.86,7.118,9.1,7.118,7.862,0,10.13-3.418,10.159-7.27C108.246,44.773,95.849,47.107,95.9,44.44Zm-8.044,2.425c0-4.416-.53-7.916-9.293-7.916-7.314,0-9.758,2.629-9.706,6.96H75.4a2.694,2.694,0,0,1,2.7-2.295c.777,0,2.4.177,2.4,1.519,0,4.024-12.655.311-12.655,8.87,0,3.851,4,5.414,6.083,5.362,2.755-.067,4.877-.565,6.961-2.508l.8,1.979h6.5C87.88,58.128,87.854,46.864,87.854,46.864ZM77.1,55.137a1.878,1.878,0,0,1-2.063-1.907c.017-1.571,3.27-1.514,5.673-2.68C80.89,53.092,79.684,55.137,77.1,55.137ZM13.7,31.4H1.088V58.83H9.23V50.322h4.747c7.314,0,10.88-3.931,10.88-9.408,0-5.229-3.848-9.514-11.162-9.514ZM13.32,44.29H9.231V38.1h2.994c1.765,0,4.451.48,4.451,2.847A3.1,3.1,0,0,1,13.32,44.29ZM144.241,39c-2.79,0-3.969.464-6.566,2.835l.019-2.105-6.733-.006V58.847h6.733V48.8c0-2.368,1.218-3.816,3.48-3.816,2.084,0,2.58,1.093,2.58,2.931v10.93H151.1V47.143C151.1,42.055,149.117,39,144.241,39ZM59.776,39c-2.791,0-3.97.464-6.566,2.835l.017-2.105L46.5,39.722V58.847h7.092V48.8c0-2.368.935-4.082,3.2-4.082,2.084,0,2.5,1.359,2.5,3.2v10.93h7.35V47.143c0-5.088-1.987-8.145-6.862-8.145Z" transform="translate(0 0)" fill-rule="evenodd"/>
      </g>
    </g>
  </g>
</svg>
