<svg xmlns="http://www.w3.org/2000/svg" xmlns:xlink="http://www.w3.org/1999/xlink" width="225" height="225" viewBox="0 0 225 225">
  <defs>
    <clipPath id="clip-path">
      <rect id="Ret창ngulo_5143" data-name="Ret창ngulo 5143" width="190" height="95" transform="translate(0 0)" fill="none"/>
    </clipPath>
  </defs>
  <g id="Grupo_12481" data-name="Grupo 12481" transform="translate(833 -1551)">
    <rect id="Ret창ngulo_5157" data-name="Ret창ngulo 5157" width="225" height="225" transform="translate(-833 1551)" fill="#fff"/>
    <g id="Grupo_12430" data-name="Grupo 12430" transform="translate(-811 1626.182)">
      <g id="Grupo_12429" data-name="Grupo 12429" transform="translate(0 -0.182)" clip-path="url(#clip-path)">
        <g id="Grupo_12428" data-name="Grupo 12428">
          <g id="Grupo_12427" data-name="Grupo 12427" clip-path="url(#clip-path)">
            <g id="Grupo_12426" data-name="Grupo 12426">
              <g id="Grupo_12425" data-name="Grupo 12425" clip-path="url(#clip-path)">
                <path id="Caminho_19431" data-name="Caminho 19431" d="M189.678,94.839H0V0H189.678ZM49.589,31.14c-.256-3.424-.256-3.424-3.561-3.423a5.276,5.276,0,0,1-.738,0c-1.791-.257-2.365.517-2.344,2.29.079,6.7.018,13.4.036,20.1.013,4.979-.589,4.426,4.41,4.444,2.222.008,2.345-.135,2.354-2.46.017-4.487,0-8.973.056-13.459a12.972,12.972,0,0,1,.422-3.081A2.676,2.676,0,0,1,53.3,33.49a2.544,2.544,0,0,1,2.545,2.43,18.169,18.169,0,0,1,.246,2.934c.024,3.749-.021,7.5.007,11.247.039,5.059-.636,4.319,4.395,4.452,1.719.046,2.42-.435,2.372-2.287-.118-4.545-.062-9.1-.013-13.643a9.444,9.444,0,0,1,.46-3.073,3.016,3.016,0,0,1,3.539-1.994c1.587.2,2.1,1.34,2.268,2.712a16.777,16.777,0,0,1,.053,2.026q0,7.191-.007,14.382c0,.919.047,1.946,1.234,1.816,1.8-.2,3.8.909,5.375-.728.135-.14.094-.473.093-.717-.022-6.636.046-13.275-.116-19.908A6.094,6.094,0,0,0,69.914,27.3a7.19,7.19,0,0,0-7.629,4.265c-2.708-5.641-9.451-5.79-12.7-.421M31.835,51.918c3.263,3.8,2.461,3.489,6.534.015a1.527,1.527,0,0,1,.139-.121c1.013-.679.968-1.338.414-2.454a13.9,13.9,0,0,1-1.507-4.964c-.239-3.116-.044-6.264-.091-9.4-.063-4.221-2.144-6.8-6.286-7.631a17.988,17.988,0,0,0-4.576-.33c-4.779.286-8.149,2.684-9.27,6.336-.415,1.348-.17,2.135,1.393,2.215a23.747,23.747,0,0,0,3.118.244,3.193,3.193,0,0,0,1.6-1c.776-.731,1.328-1.8,2.215-2.289a3.316,3.316,0,0,1,3.966.466c1.341,1.232,1.024,2.877.861,4.532a29.983,29.983,0,0,0-4.071.537,27.109,27.109,0,0,0-6.554,2.2c-3.345,1.937-4.5,6.548-3.022,10.3,1.261,3.208,4.483,4.931,8.535,4.057,2.191-.472,4.217-1.708,6.6-2.718M94.256,37.54a10.747,10.747,0,0,0-1.4.162c-2.9.708-6,1.024-8.651,2.268-3.671,1.721-5,6.425-3.554,10.408,1.2,3.324,4.4,5.1,8.593,4.231,2.246-.467,4.321-1.759,6.621-2.743.07.093.393.539.737.969,1.765,2.2,2.139,2.242,4.223.446.606-.522,1.17-1.1,1.811-1.574.945-.7.789-1.311.321-2.332a15.916,15.916,0,0,1-1.521-5.152c-.247-2.931-.03-5.9-.089-8.848-.1-4.887-2.011-7.2-6.817-8.118a16.124,16.124,0,0,0-4.4-.215c-4.715.422-7.961,2.853-8.972,6.472-.327,1.172-.181,1.92,1.238,2.006,1.166.071,2.328.326,3.488.305a1.9,1.9,0,0,0,1.367-.842c1.37-2.487,2.983-3.353,5.135-2.608,1.884.652,2.514,2.342,1.874,5.163m65.989-5.661c-.168-4.168-.168-4.168-3.855-4.163a4.6,4.6,0,0,1-.554,0c-1.523-.185-2.041.455-2.027,2,.066,6.947.017,13.9.035,20.843.011,4.381-.568,3.987,4.1,3.993,2.562,0,2.538,0,2.573-2.55.067-4.852.029-9.711.3-14.553.157-2.787,1.658-4.125,3.663-3.968,1.781.139,2.651,1.5,2.675,4.359.033,4-.03,7.993.024,11.989.074,5.459-1.095,4.666,5.2,4.722.061,0,.15.023.181-.009.445-.461,1.262-.927,1.265-1.4.032-6.516.059-13.035-.146-19.546a6.333,6.333,0,0,0-4.905-6.192c-3.388-.762-5.974.36-7.835,3.4-.15.245-.311.484-.694,1.079M150.184,39.94a15.422,15.422,0,0,0-2.269-7.732,10.277,10.277,0,0,0-17.441-.385c-3.343,5.089-3.286,13.715.123,18.744a10.164,10.164,0,0,0,15.586,1.551c2.983-2.948,3.968-6.678,4-12.178M39.045,57.629l-.253.432a2.648,2.648,0,0,0,.393.571c1.218,1.036,2.405,2.115,3.686,3.067C57.146,72.309,73.143,76,90.621,73.184a53.153,53.153,0,0,0,22.309-8.759c.552-.386.822-1.174,1.224-1.775A5.693,5.693,0,0,0,112,62.574a82.523,82.523,0,0,1-40.475,5.538,84.354,84.354,0,0,1-30.745-9.7c-.556-.3-1.155-.525-1.734-.785m77.01-12.358c2.6-3.718,5.221-7.582,7.985-11.337a7.1,7.1,0,0,0,1.236-4.855c-.047-1.008-.5-1.4-1.5-1.4q-7.486.036-14.972,0c-1.133-.007-1.566.485-1.519,1.554a10.782,10.782,0,0,1-.007,1.659c-.189,1.683.513,2.335,2.217,2.257,2.23-.1,4.469-.025,7.08-.025-2.859,4.1-5.287,7.947-8.106,11.488-1.961,2.463-2.186,5.094-2.015,7.955.06,1.005.4,1.529,1.515,1.005a18.533,18.533,0,0,1,16.231-.025,1.375,1.375,0,0,0,1.257-.163c1.056-1.217.069-5.594-1.472-6.081-2.545-.8-5.174-1.341-7.925-2.031m-.316,25.539a7.242,7.242,0,0,0,.9-.571c3.315-3.192,4.689-7.257,5.183-11.686A1.946,1.946,0,0,0,119.9,56.3a25.711,25.711,0,0,0-5.125-.35,13.25,13.25,0,0,0-8.121,2.958c.833,0,1.236.017,1.637,0,2.267-.11,4.541-.4,6.8-.3,3.013.128,3.772,1.156,3.072,3.98-.658,2.654-1.534,5.253-2.42,8.23" transform="translate(0 0.161)" fill="#fff"/>
                <path id="Caminho_19432" data-name="Caminho 19432" d="M122.567,77.393c3.246-5.37,9.988-5.22,12.7.421a7.19,7.19,0,0,1,7.629-4.265,6.094,6.094,0,0,1,5.834,5.841c.162,6.633.094,13.272.116,19.908,0,.244.043.578-.093.717-1.581,1.637-3.578.532-5.375.728-1.187.13-1.237-.9-1.234-1.816q.02-7.191.007-14.382a16.7,16.7,0,0,0-.053-2.026c-.168-1.372-.682-2.512-2.268-2.712a3.016,3.016,0,0,0-3.539,1.994,9.453,9.453,0,0,0-.46,3.073c-.049,4.548-.105,9.1.013,13.643.048,1.852-.653,2.332-2.372,2.287-5.031-.133-4.356.607-4.395-4.452-.029-3.749.017-7.5-.007-11.247a18.126,18.126,0,0,0-.246-2.934,2.544,2.544,0,0,0-2.545-2.43A2.676,2.676,0,0,0,123.2,81.8a12.953,12.953,0,0,0-.422,3.081c-.056,4.486-.04,8.973-.057,13.459-.009,2.325-.132,2.467-2.354,2.46-5-.017-4.4.535-4.41-4.444-.018-6.7.043-13.4-.036-20.1-.021-1.773.553-2.547,2.344-2.29a5.275,5.275,0,0,0,.738,0c3.3,0,3.3,0,3.56,3.423" transform="translate(-72.979 -46.092)" fill="#161615"/>
                <path id="Caminho_19433" data-name="Caminho 19433" d="M59.146,97.81c-2.379,1.01-4.405,2.246-6.6,2.718-4.053.874-7.274-.849-8.535-4.057-1.476-3.754-.324-8.365,3.022-10.3a27.11,27.11,0,0,1,6.554-2.2,29.982,29.982,0,0,1,4.071-.537c.163-1.655.48-3.3-.861-4.532a3.316,3.316,0,0,0-3.966-.466c-.887.493-1.439,1.559-2.215,2.289a3.191,3.191,0,0,1-1.6,1,23.746,23.746,0,0,1-3.118-.244c-1.563-.08-1.807-.867-1.393-2.215,1.122-3.652,4.492-6.05,9.27-6.336a17.987,17.987,0,0,1,4.576.33c4.142.834,6.223,3.41,6.286,7.631.047,3.133-.147,6.281.091,9.4a13.9,13.9,0,0,0,1.507,4.963c.553,1.115.6,1.775-.414,2.454a1.528,1.528,0,0,0-.139.121c-4.073,3.474-3.271,3.788-6.534-.015m-1.2-10.063-.552-.54A30.482,30.482,0,0,0,52.71,88.46a4.18,4.18,0,0,0-2,4.883,2.765,2.765,0,0,0,2.625,2.408,3.867,3.867,0,0,0,3.907-3.012,34.085,34.085,0,0,0,.7-4.991" transform="translate(-27.311 -45.731)" fill="#161615"/>
                <path id="Caminho_19434" data-name="Caminho 19434" d="M230.328,83.39c.64-2.821.01-4.511-1.874-5.163-2.152-.745-3.764.122-5.135,2.608a1.9,1.9,0,0,1-1.367.842c-1.16.021-2.322-.235-3.488-.305-1.419-.086-1.565-.834-1.238-2.006,1.011-3.62,4.257-6.05,8.972-6.473a16.124,16.124,0,0,1,4.4.215c4.806.916,6.719,3.231,6.817,8.118.059,2.95-.158,5.917.089,8.848a15.916,15.916,0,0,0,1.521,5.152c.468,1.02.624,1.63-.321,2.332-.641.475-1.205,1.052-1.811,1.574-2.083,1.8-2.458,1.757-4.223-.446-.344-.429-.666-.876-.737-.969-2.3.983-4.375,2.275-6.621,2.743-4.193.872-7.389-.907-8.593-4.231-1.443-3.984-.117-8.687,3.554-10.408,2.654-1.244,5.748-1.56,8.651-2.268a10.823,10.823,0,0,1,1.4-.162m.445,4.346-.546-.6a31.385,31.385,0,0,0-4.843,1.316c-1.673.74-2.372,2.887-1.92,4.756a2.809,2.809,0,0,0,2.572,2.483,3.834,3.834,0,0,0,3.952-2.96,35.265,35.265,0,0,0,.786-5" transform="translate(-136.072 -45.689)" fill="#161615"/>
                <path id="Caminho_19435" data-name="Caminho 19435" d="M421.614,78.048c.383-.595.543-.834.694-1.08,1.861-3.039,4.448-4.162,7.835-3.4a6.332,6.332,0,0,1,4.905,6.192c.205,6.511.178,13.031.146,19.546,0,.469-.819.935-1.265,1.4-.03.032-.119.009-.181.009-6.3-.055-5.13.737-5.2-4.722-.054-4,.009-7.993-.024-11.989-.023-2.857-.894-4.219-2.675-4.358-2-.157-3.506,1.181-3.663,3.968-.272,4.841-.234,9.7-.3,14.553-.035,2.546-.011,2.554-2.573,2.55-4.664-.006-4.085.388-4.1-3.993-.018-6.948.031-13.9-.035-20.843-.014-1.54.5-2.181,2.027-2a4.6,4.6,0,0,0,.554,0c3.687-.006,3.687-.006,3.855,4.163" transform="translate(-261.369 -46.008)" fill="#161615"/>
                <path id="Caminho_19436" data-name="Caminho 19436" d="M367.7,86.11c-.034,5.5-1.018,9.229-4,12.178a10.164,10.164,0,0,1-15.586-1.551c-3.409-5.03-3.465-13.655-.123-18.744a10.277,10.277,0,0,1,17.441.385A15.423,15.423,0,0,1,367.7,86.11m-6.985.429-.209-.028c-.1-1.221-.176-2.444-.3-3.662a10.239,10.239,0,0,0-.28-1.252c-.384-1.68-1.124-2.983-3.116-3.027a3.23,3.23,0,0,0-3.478,2.88,24.729,24.729,0,0,0,.136,11.633c.4,1.575,1.248,2.879,3.093,2.9a3.227,3.227,0,0,0,3.282-2.916c.436-2.145.591-4.346.868-6.523" transform="translate(-217.517 -46.009)" fill="#161615"/>
                <path id="Caminho_19437" data-name="Caminho 19437" d="M104.966,155.56c.579.26,1.178.482,1.734.785a84.354,84.354,0,0,0,30.745,9.7A82.524,82.524,0,0,0,177.92,160.5a5.7,5.7,0,0,1,2.155.076c-.4.6-.671,1.39-1.224,1.776a53.16,53.16,0,0,1-22.309,8.759c-17.478,2.815-33.475-.875-47.75-11.485-1.281-.952-2.469-2.032-3.686-3.067a2.633,2.633,0,0,1-.393-.571l.253-.432" transform="translate(-65.921 -97.769)" fill="#161615"/>
                <path id="Caminho_19438" data-name="Caminho 19438" d="M296.869,92.307c2.751.689,5.381,1.227,7.925,2.031,1.541.487,2.528,4.863,1.473,6.081a1.377,1.377,0,0,1-1.257.163,18.534,18.534,0,0,0-16.231.025c-1.113.523-1.455,0-1.515-1.005-.171-2.861.054-5.492,2.015-7.955,2.82-3.541,5.248-7.392,8.106-11.488-2.611,0-4.849-.078-7.08.025-1.7.078-2.406-.574-2.217-2.257a10.781,10.781,0,0,0,.007-1.659c-.047-1.069.386-1.561,1.519-1.553q7.486.048,14.972,0c1,0,1.458.389,1.5,1.4a7.1,7.1,0,0,1-1.236,4.855c-2.765,3.755-5.381,7.619-7.985,11.337" transform="translate(-180.813 -46.874)" fill="#161615"/>
                <path id="Caminho_19439" data-name="Caminho 19439" d="M296.974,165.817c.885-2.977,1.762-5.577,2.42-8.23.7-2.824-.059-3.852-3.072-3.98-2.258-.1-4.531.192-6.8.3-.4.019-.8,0-1.637,0a13.25,13.25,0,0,1,8.121-2.958,25.71,25.71,0,0,1,5.125.35,1.946,1.946,0,0,1,1.922,2.257c-.493,4.429-1.868,8.494-5.183,11.686a7.241,7.241,0,0,1-.9.571" transform="translate(-181.235 -94.846)" fill="#161615"/>
                <path id="Caminho_19440" data-name="Caminho 19440" d="M70.147,112.062a34.085,34.085,0,0,1-.7,4.991,3.867,3.867,0,0,1-3.907,3.012,2.765,2.765,0,0,1-2.625-2.408,4.18,4.18,0,0,1,2-4.883,30.481,30.481,0,0,1,4.685-1.253l.552.54" transform="translate(-39.512 -70.046)" fill="#fff"/>
                <path id="Caminho_19441" data-name="Caminho 19441" d="M242.977,112.05a35.265,35.265,0,0,1-.786,5,3.834,3.834,0,0,1-3.952,2.96,2.809,2.809,0,0,1-2.572-2.483c-.452-1.869.248-4.016,1.92-4.756a31.384,31.384,0,0,1,4.843-1.316l.546.6" transform="translate(-148.276 -70.002)" fill="#fff"/>
                <path id="Caminho_19442" data-name="Caminho 19442" d="M372.932,95.423c-.276,2.177-.432,4.378-.868,6.523a3.227,3.227,0,0,1-3.282,2.916c-1.845-.017-2.691-1.32-3.093-2.9a24.728,24.728,0,0,1-.136-11.633,3.23,3.23,0,0,1,3.478-2.88c1.992.044,2.732,1.347,3.116,3.027a10.262,10.262,0,0,1,.28,1.252c.12,1.218.2,2.441.3,3.662l.209.028" transform="translate(-229.734 -54.893)" fill="#fff"/>
              </g>
            </g>
          </g>
        </g>
      </g>
    </g>
  </g>
</svg>
